<svg width="92" height="41" viewBox="0 0 92 41" fill="none" xmlns="http://www.w3.org/2000/svg">
<path fill-rule="evenodd" clip-rule="evenodd" d="M8.17618 20.0664C4.73945 20.0664 2.01406 19.0468 0 17.0076V16.95L2.21678 13.8407C3.88296 15.5837 5.9378 16.4558 8.3813 16.457C9.44651 16.457 10.2748 16.2483 10.8662 15.8308C11.4576 15.4134 11.7533 14.9048 11.7533 14.305C11.7533 13.7808 11.4768 13.3447 10.9238 12.9969C10.2896 12.6171 9.58935 12.3607 8.85992 12.2411C7.95208 12.0656 7.05416 11.8422 6.16992 11.5718C5.25367 11.3003 4.35576 10.9703 3.48171 10.584C2.64522 10.2048 1.93066 9.60051 1.41788 8.8386C0.863681 8.04689 0.587183 7.07825 0.588382 5.93267C0.588382 4.26529 1.25713 2.86421 2.59464 1.72943C3.93215 0.594646 5.71529 0.0278551 7.94406 0.0290546C11.0257 0.0290546 13.5448 0.928722 15.5013 2.72806L13.2071 5.75814C11.6753 4.34266 9.79498 3.63492 7.5662 3.63492C6.69412 3.63492 6.01577 3.80946 5.53115 4.15853C5.30149 4.31683 5.11524 4.53026 4.98949 4.77925C4.86374 5.02823 4.80251 5.3048 4.81142 5.5836C4.81142 6.04783 5.08732 6.44008 5.63911 6.76037C6.28225 7.11481 6.98061 7.35814 7.70475 7.4801C8.60863 7.65551 9.50144 7.88382 10.3786 8.16385C11.2909 8.44614 12.1846 8.78568 13.0542 9.18047C13.8896 9.5699 14.6022 10.1811 15.1144 10.9474C15.6824 11.8034 15.9721 12.8139 15.9439 13.8407C15.9439 15.7013 15.2799 17.2007 13.952 18.3391C12.6241 19.4775 10.6988 20.0532 8.17618 20.0664Z" fill="#201600"/>
<path fill-rule="evenodd" clip-rule="evenodd" d="M26.9881 19.7135H22.8317V3.95317H17.1602V0.320312H32.629V3.95317H26.9881V19.7135Z" fill="#201600"/>
<path fill-rule="evenodd" clip-rule="evenodd" d="M43.7348 9.18743C44.4981 9.21615 45.2448 8.95956 45.8292 8.4677C46.0966 8.23147 46.3083 7.93881 46.449 7.61085C46.5896 7.28289 46.6557 6.9278 46.6425 6.5712C46.6574 6.21332 46.5922 5.85663 46.4514 5.52725C46.3107 5.19786 46.0981 4.90411 45.8292 4.6675C45.2454 4.17441 44.4983 3.91766 43.7348 3.94777H39.4056V9.18743H43.7348ZM50.9753 19.7063H46.243L42.4338 12.8149H39.4056V19.7063H35.2671V0.320312H44.3393C46.3354 0.320312 47.9194 0.901498 49.0914 2.06387C50.2633 3.22624 50.8499 4.72568 50.8511 6.5622C50.8511 8.15162 50.4391 9.44054 49.615 10.429C48.8576 11.3828 47.7998 12.0524 46.6137 12.3291L50.9753 19.7063Z" fill="#201600"/>
<path fill-rule="evenodd" clip-rule="evenodd" d="M84.5865 19.7135H80.457V11.7749L72.9844 0.320312H77.695L82.5208 8.11143L87.2891 0.320312H91.9997L84.5865 11.7749V19.7135Z" fill="#201600"/>
<path fill-rule="evenodd" clip-rule="evenodd" d="M24.7786 39.6915H20.417V29.3004C20.417 27.5514 19.5996 26.6763 17.9646 26.6751C17.2709 26.6766 16.5928 26.8811 16.0141 27.2635C15.4553 27.6121 14.967 28.0625 14.5746 28.5914V39.6987H10.195V29.3004C10.195 27.5514 9.37753 26.6763 7.74254 26.6751C7.05162 26.68 6.37681 26.8843 5.79926 27.2635C5.22426 27.6142 4.72606 28.0775 4.3346 28.6256V39.6987H0V23.2348H4.3346V25.3814C4.74364 24.7912 5.45798 24.219 6.4776 23.6648C7.46892 23.1164 8.58347 22.8291 9.71641 22.83C12.1023 22.83 13.6246 23.8292 14.2831 25.8276C14.9193 24.9141 15.7642 24.1655 16.7478 23.6441C17.7314 23.1227 18.8253 22.8436 19.9384 22.83C21.4835 22.83 22.6764 23.2444 23.5173 24.0733C24.3582 24.9022 24.778 26.1461 24.7768 27.8051L24.7786 39.6915Z" fill="#201600"/>
<path fill-rule="evenodd" clip-rule="evenodd" d="M35.447 37.1706C37.0592 37.1706 38.218 36.6938 38.9233 35.7401V33.6943C38.218 32.7347 37.0592 32.2548 35.447 32.2548C34.6556 32.2255 33.8768 32.459 33.232 32.9188C32.9464 33.1272 32.7162 33.4025 32.5619 33.7207C32.4075 34.0388 32.3336 34.39 32.3468 34.7433C32.3353 35.0888 32.4102 35.4317 32.5648 35.7409C32.7194 36.0501 32.9488 36.3157 33.232 36.5139C33.8808 36.9637 34.6581 37.191 35.447 37.1616V37.1706ZM43.2489 39.6807H38.9305V37.9875C37.7478 39.397 36.0084 40.1011 33.7125 40.0999C32.2597 40.1105 30.8514 39.5998 29.7431 38.6605C28.5736 37.6936 27.9888 36.3591 27.9888 34.6569C27.9888 32.884 28.5622 31.5549 29.7089 30.6696C30.8538 29.785 32.2658 29.3167 33.7125 29.3417C36.0516 29.3417 37.7909 30.0117 38.9305 31.3516V29.1294C38.9418 28.7391 38.8575 28.352 38.685 28.0017C38.5125 27.6514 38.2571 27.3486 37.9409 27.1195C37.2751 26.6157 36.3971 26.3638 35.3067 26.3638C33.5073 26.3638 31.9059 27.0116 30.5024 28.3071L28.8668 25.4102C30.8209 23.684 33.22 22.8209 36.0642 22.8209C38.1766 22.8209 39.9028 23.3091 41.2427 24.2856C42.5826 25.262 43.2501 26.8544 43.2453 29.0628L43.2489 39.6807Z" fill="#201600"/>
<path fill-rule="evenodd" clip-rule="evenodd" d="M51.866 39.6916H47.5386V23.2349H51.866V25.484C52.5067 24.6896 53.3081 24.0397 54.2177 23.5767C55.1072 23.0928 56.1021 22.8352 57.1146 22.8264V27.0513C56.7219 26.974 56.3219 26.9396 55.9217 26.9487C55.1198 26.9641 54.3302 27.148 53.6041 27.4885C52.7872 27.8484 52.206 28.2946 51.866 28.8164V39.6916Z" fill="#201600"/>
<path fill-rule="evenodd" clip-rule="evenodd" d="M74.5572 39.1265C74.3469 39.3322 74.0719 39.4587 73.7789 39.4847C73.4859 39.5106 73.193 39.4344 72.9498 39.2689C72.7066 39.1034 72.5282 38.8589 72.4448 38.5768C72.3615 38.2948 72.3782 37.9925 72.4924 37.7214C72.6065 37.4504 72.8109 37.2271 73.0709 37.0896C73.3309 36.9521 73.6305 36.9088 73.9188 36.967C74.2071 37.0253 74.4664 37.1815 74.6526 37.4092C74.8388 37.6368 74.9405 37.9219 74.9404 38.2161C74.942 38.3859 74.9089 38.5544 74.843 38.7109C74.777 38.8675 74.6798 39.0089 74.5572 39.1265Z" fill="#201600"/>
<path fill-rule="evenodd" clip-rule="evenodd" d="M83.9352 39.3351H81.9055V38.3599C81.567 38.7426 81.148 39.0455 80.6786 39.2471C80.2091 39.4487 79.7009 39.5439 79.1903 39.5259C78.359 39.5259 77.7359 39.313 77.3208 38.8871C76.9058 38.4613 76.6982 37.8645 76.6982 37.0968V31.6178H78.7261V36.2961C78.7261 37.2437 79.2005 37.7175 80.1494 37.7175C80.4911 37.7228 80.829 37.6457 81.1346 37.4929C81.4403 37.3401 81.7047 37.1159 81.9055 36.8395V31.6214H83.9352V39.3351Z" fill="#201600"/>
<path fill-rule="evenodd" clip-rule="evenodd" d="M91.9083 39.3351H85.6143V37.8165L89.096 33.3901H85.6143V31.6178H91.8454V33.0879L88.3133 37.561H91.9083V39.3351Z" fill="#201600"/>
<path fill-rule="evenodd" clip-rule="evenodd" d="M59.7105 5.59233C59.7102 4.90748 59.9129 4.2379 60.2932 3.66831C60.6735 3.09873 61.2141 2.65473 61.8468 2.39248C62.4794 2.13023 63.1757 2.06152 63.8474 2.19505C64.5191 2.32857 65.1361 2.65832 65.6204 3.14259C66.1046 3.62685 66.4344 4.24387 66.5679 4.91559C66.7014 5.5873 66.6327 6.28353 66.3705 6.91618C66.1082 7.54884 65.6642 8.0895 65.0946 8.46976C64.5251 8.85003 63.8555 9.05281 63.1706 9.05245C62.2529 9.05245 61.3729 8.6879 60.724 8.03901C60.0751 7.39011 59.7105 6.51001 59.7105 5.59233ZM70.4399 17.2412C72.3484 15.3627 73.3027 12.9594 73.3027 10.0313C73.3027 7.10317 72.3484 4.69926 70.4399 2.81956C68.5314 0.941052 66.1035 0.00119956 63.1562 0C60.2293 0 57.811 0.945251 55.9013 2.83575C53.9916 4.72625 53.0374 7.12536 53.0386 10.0331C53.0386 12.9408 53.9928 15.3399 55.9013 17.2304C57.3294 18.6556 59.1728 19.5911 61.1662 19.9024V39.5692H65.1733V39.5512H69.094V35.5405H65.1733V27.4075H68.7126V23.4003H65.1733V19.897C67.1652 19.5898 69.0087 18.6602 70.4399 17.2412Z" fill="#A88F6C"/>
</svg>
