<?xml version="1.0" encoding="UTF-8"?>
<svg xmlns="http://www.w3.org/2000/svg" viewBox="0 0 644.76 355.28">
  <defs>
    <style>
      .cls-1 { letter-spacing: .32em; }
      .cls-2, .cls-3 { stroke-width: 0; }
      .cls-4 { letter-spacing: .28em; }
      .cls-5 { letter-spacing: .33em; }
      .cls-6 { letter-spacing: .32em; font-family: Technica-Regular, Technica; font-size: 86.44px; }
      .cls-7 { letter-spacing: .3em; font-family: Technica-Regular, Technica; font-size: 86.44px; }
      .cls-8 { letter-spacing: .33em; font-family: Technica-Regular, Technica; font-size: 86.44px; }
      .cls-9 { stroke: #000; stroke-miterlimit: 10; stroke-width: 8px; fill: #fff; }
      .cls-10 { letter-spacing: .31em; }
      .cls-11 { letter-spacing: .3em; }
      .cls-12 { font-family: Technica-Light, Technica; font-size: 23px; font-weight: 300; }
      .cls-13 { letter-spacing: .33em; }
      .cls-14 { letter-spacing: .31em; }
    </style>
  </defs>
  <g id="Title">
    <text class="cls-12" transform="translate(102.18 350.22)">
      <tspan class="cls-5" x="0" y="0">CON</tspan>
      <tspan class="cls-11" x="79.19" y="0">S</tspan>
      <tspan class="cls-14" x="101.02" y="0">T</tspan>
      <tspan class="cls-13" x="123.42" y="0">RUC</tspan>
      <tspan class="cls-10" x="198.88" y="0">T</tspan>
      <tspan class="cls-1" x="221.28" y="0">ION MARKE</tspan>
      <tspan class="cls-4" x="425.52" y="0">T</tspan>
    </text>
    <text class="cls-8" transform="translate(0 276.54)">
      <tspan x="0" y="0">P</tspan>
    </text>
    <text class="cls-7" transform="translate(181.01 276.54)">
      <tspan x="0" y="0">V</tspan>
    </text>
    <text class="cls-6" transform="translate(276.02 276.54)">
      <tspan x="0" y="0">I</tspan>
    </text>
    <text class="cls-6" transform="translate(383.02 276.54)">
      <tspan x="0" y="0">I</tspan>
    </text>
    <text class="cls-8" transform="translate(438.03 276.54)">
      <tspan x="0" y="0">O</tspan>
    </text>
    <text class="cls-8" transform="translate(548.03 276.54)">
      <tspan x="0" y="0">N</tspan>
    </text>
    <text class="cls-6" transform="translate(331.02 293.54)">
      <tspan x="0" y="0">I</tspan>
    </text>
    <text class="cls-6" transform="translate(331.02 258.53)">
      <tspan x="0" y="0">I</tspan>
    </text>
    <text class="cls-7" transform="translate(149.96 216.03) rotate(-180)">
      <tspan x="0" y="0">V</tspan>
    </text>
    <rect class="cls-2" x="103.44" y="249.88" width="31.09" height="5.18"/>
  </g>
  <g id="Figure">
    <polygon class="cls-2" points="384.29 54 316.35 0 248.41 54 248.41 150.35 384.29 150.35 384.29 54"/>
    <polygon class="cls-3" points="374.55 60.15 316.35 12.71 258.15 59.15 258.15 150.35 374.55 150.35 374.55 60.15"/>
    <rect class="cls-2" x="236.24" y="150.35" width="158.12" height="14.12"/>
    <polygon class="cls-9" points="340.82 95.71 316.22 76.41 291.62 95.71 291.62 154.42 340.82 154.42 340.82 95.71"/>
    <rect class="cls-2" x="245.93" y="75.44" width="140.29" height="12" transform="translate(397.52 -234.63) rotate(90)"/>
  </g>
</svg>
